<?xml version="1.0" encoding="UTF-8"?>
<svg id="Lager_1" data-name="Lager 1" xmlns="http://www.w3.org/2000/svg" version="1.1" viewBox="0 0 825.5 408.8">
  <defs>
    <style>
      .cls-1, .cls-2, .cls-3, .cls-4, .cls-5, .cls-6, .cls-7 {
        isolation: isolate;
      }

      .cls-1, .cls-2, .cls-3, .cls-4, .cls-5, .cls-7 {
        font-family: VAGRundschriftD, 'VAG Rundschrift D';
        font-size: 36px;
      }

      .cls-1, .cls-2, .cls-3, .cls-4, .cls-5, .cls-7, .cls-8 {
        fill: #2e2a2a;
      }

      .cls-2 {
        letter-spacing: 0em;
      }

      .cls-9 {
        fill: #e87c10;
      }

      .cls-9, .cls-10, .cls-11, .cls-12, .cls-8 {
        stroke-width: 0px;
      }

      .cls-10 {
        fill: #55799f;
      }

      .cls-3 {
        letter-spacing: 0em;
      }

      .cls-4 {
        letter-spacing: 0em;
      }

      .cls-13 {
        fill: #f9f9f6;
        stroke: #000;
        stroke-miterlimit: 10;
      }

      .cls-5 {
        letter-spacing: 0em;
      }

      .cls-11 {
        fill: #2d3a48;
      }

      .cls-12 {
        fill: #43576d;
      }

      .cls-7 {
        letter-spacing: 0em;
      }
    </style>
  </defs>
  <circle id="Ellipse_4" data-name="Ellipse 4" class="cls-13" cx="747.9" cy="77.6" r="77.6"/>
  <circle id="Ellipse_1" data-name="Ellipse 1" class="cls-9" cx="576.7" cy="77.3" r="74.1"/>
  <circle id="Ellipse_2" data-name="Ellipse 2" class="cls-10" cx="409.1" cy="74.1" r="74.1"/>
  <circle id="Ellipse_3" data-name="Ellipse 3" class="cls-11" cx="74.1" cy="74.1" r="74.1"/>
  <circle id="Ellipse_5" data-name="Ellipse 5" class="cls-12" cx="241.6" cy="74.1" r="74.1"/>
  <g id="VAG_Rundschrift_D_The_quick_brown_fox_jumps_over_the_lazy_dog" data-name="VAG Rundschrift D The quick brown fox jumps over the lazy dog" class="cls-6">
    <g class="cls-6">
      <text class="cls-5" transform="translate(81.2 273.6)"><tspan x="0" y="0">V</tspan></text>
      <text class="cls-4" transform="translate(100.9 273.6)"><tspan x="0" y="0">A</tspan></text>
      <text class="cls-1" transform="translate(121.9 273.6)"><tspan x="0" y="0">G </tspan></text>
      <text class="cls-2" transform="translate(155 273.6)"><tspan x="0" y="0">R</tspan></text>
      <text class="cls-1" transform="translate(175 273.6)"><tspan x="0" y="0">unds</tspan></text>
      <text class="cls-1" transform="translate(249.8 273.6)"><tspan x="0" y="0">c</tspan></text>
      <text class="cls-1" transform="translate(266.1 273.6)"><tspan x="0" y="0">h</tspan></text>
      <text class="cls-1" transform="translate(285.8 273.6)"><tspan x="0" y="0">r</tspan></text>
      <text class="cls-1" transform="translate(298.6 273.6)"><tspan x="0" y="0">i</tspan></text>
      <text class="cls-7" transform="translate(307.8 273.6)"><tspan x="0" y="0">f</tspan></text>
      <text class="cls-1" transform="translate(321.2 273.6)"><tspan x="0" y="0">t D</tspan></text>
    </g>
    <g class="cls-6">
      <text class="cls-1" transform="translate(57.8 357.6)"><tspan x="0" y="0">T</tspan></text>
      <text class="cls-1" transform="translate(75.1 357.6)"><tspan x="0" y="0">he </tspan></text>
      <text class="cls-1" transform="translate(122.9 357.6)"><tspan x="0" y="0">q</tspan></text>
      <text class="cls-1" transform="translate(142.7 357.6)"><tspan x="0" y="0">ui</tspan></text>
      <text class="cls-1" transform="translate(171.5 357.6)"><tspan x="0" y="0">c</tspan></text>
      <text class="cls-1" transform="translate(187.8 357.6)"><tspan x="0" y="0">k b</tspan></text>
      <text class="cls-3" transform="translate(235 357.6)"><tspan x="0" y="0">r</tspan></text>
      <text class="cls-3" transform="translate(247.5 357.6)"><tspan x="0" y="0">o</tspan></text>
      <text class="cls-1" transform="translate(265.9 357.6)"><tspan x="0" y="0">wn </tspan></text>
      <text class="cls-4" transform="translate(321.3 357.6)"><tspan x="0" y="0">f</tspan></text>
      <text class="cls-3" transform="translate(333.6 357.6)"><tspan x="0" y="0">o</tspan></text>
      <text class="cls-1" transform="translate(351.8 357.6)"><tspan x="0" y="0">x</tspan></text>
    </g>
    <g class="cls-6">
      <text class="cls-1" transform="translate(9.9 399.6)"><tspan x="0" y="0">ju</tspan></text>
      <text class="cls-1" transform="translate(38.7 399.6)"><tspan x="0" y="0">m</tspan></text>
      <text class="cls-1" transform="translate(68.7 399.6)"><tspan x="0" y="0">ps </tspan></text>
      <text class="cls-3" transform="translate(113.1 399.6)"><tspan x="0" y="0">o</tspan></text>
      <text class="cls-3" transform="translate(131.3 399.6)"><tspan x="0" y="0">v</tspan></text>
      <text class="cls-1" transform="translate(148.2 399.6)"><tspan x="0" y="0">er </tspan></text>
      <text class="cls-1" transform="translate(189.4 399.6)"><tspan x="0" y="0">t</tspan></text>
      <text class="cls-1" transform="translate(201.9 399.6)"><tspan x="0" y="0">he l</tspan></text>
      <text class="cls-1" transform="translate(258.1 399.6)"><tspan x="0" y="0">a</tspan></text>
      <text class="cls-1" transform="translate(278.3 399.6)"><tspan x="0" y="0">z</tspan></text>
      <text class="cls-1" transform="translate(294.6 399.6)"><tspan x="0" y="0">y dog</tspan></text>
    </g>
  </g>
  <g id="DM_Sans_The_quick_brown_fox_jumps_over_the_lazy_dog" data-name="DM Sans The quick brown fox jumps over the lazy dog" class="cls-6">
    <g class="cls-6">
      <g class="cls-6">
        <path class="cls-8" d="M423.3,273.6v-25.2h7.4c2.9,0,5.4.5,7.3,1.5,1.9,1,3.3,2.5,4.3,4.4.9,1.9,1.4,4.1,1.4,6.8s-.5,4.8-1.4,6.7-2.3,3.3-4.3,4.3c-1.9,1-4.3,1.5-7.3,1.5h-7.4ZM426.3,271.1h4.3c2.4,0,4.4-.4,5.8-1.2,1.5-.8,2.5-2,3.1-3.5.6-1.5.9-3.3.9-5.3s-.3-3.9-.9-5.4c-.6-1.5-1.7-2.7-3.1-3.5-1.5-.8-3.4-1.2-5.8-1.2h-4.3v20.2Z"/>
        <path class="cls-8" d="M448.1,273.6v-25.2h3.5l8.9,17.6,8.9-17.6h3.6v25.2h-3v-19.8l-8.3,16.3h-2.3l-8.3-16.2v19.7h-3Z"/>
        <path class="cls-8" d="M495.9,274c-1.8,0-3.5-.3-4.8-1-1.4-.7-2.4-1.6-3.2-2.8s-1.1-2.6-1.1-4.2h3.2c0,1,.2,1.9.7,2.7s1.1,1.5,2,2c.9.5,2,.7,3.3.7s2.1-.2,2.9-.6c.8-.4,1.4-.9,1.8-1.5.4-.6.6-1.4.6-2.2s-.2-1.8-.6-2.4c-.4-.6-1-1.1-1.7-1.5s-1.6-.7-2.5-1c-.9-.3-1.9-.6-3-1-2-.7-3.5-1.5-4.4-2.5-.9-1-1.4-2.3-1.4-3.9s.3-2.6,1-3.6c.6-1,1.5-1.8,2.7-2.4,1.2-.6,2.6-.9,4.2-.9s3,.3,4.2.9c1.2.6,2.1,1.4,2.8,2.5s1,2.2,1,3.6h-3.2c0-.7-.2-1.4-.5-2.1-.4-.7-.9-1.2-1.6-1.7-.7-.4-1.7-.7-2.8-.7-.9,0-1.7.1-2.4.5-.7.3-1.3.8-1.7,1.4-.4.6-.6,1.3-.6,2.2s.2,1.5.5,2,.9.9,1.5,1.3c.7.3,1.4.7,2.3,1s1.9.6,3,1c1.2.4,2.3.9,3.3,1.5.9.6,1.7,1.3,2.2,2.2s.8,2.1.8,3.5-.3,2.3-1,3.4c-.6,1.1-1.6,1.9-2.8,2.6s-2.8,1-4.7,1Z"/>
        <path class="cls-8" d="M514.5,274c-1.5,0-2.7-.3-3.7-.8-1-.5-1.7-1.2-2.2-2.1-.5-.9-.7-1.8-.7-2.8s.3-2.3,1-3.1c.6-.9,1.5-1.5,2.7-1.9,1.2-.4,2.5-.7,4.1-.7h4.8c0-1.1-.2-2.1-.5-2.8-.3-.8-.9-1.3-1.5-1.7-.7-.4-1.5-.6-2.5-.6s-2.1.3-3,.9c-.8.6-1.4,1.4-1.5,2.6h-3.1c.1-1.3.6-2.4,1.3-3.3.7-.9,1.7-1.5,2.8-2,1.1-.5,2.3-.7,3.5-.7s3.1.3,4.2.9c1.1.6,1.9,1.5,2.5,2.6.6,1.1.8,2.4.8,3.9v11.2h-2.7l-.2-3.2c-.2.5-.5,1-.9,1.4-.4.4-.8.8-1.3,1.2s-1.1.6-1.7.8c-.6.2-1.4.3-2.2.3ZM515,271.5c.8,0,1.6-.2,2.3-.5.7-.3,1.3-.8,1.7-1.4.5-.6.8-1.3,1.1-2,.3-.7.4-1.5.4-2.3h0c0-.1-4.5-.1-4.5-.1-1.2,0-2.1.1-2.8.4-.7.3-1.2.7-1.5,1.2-.3.5-.5,1-.5,1.7s.1,1.2.5,1.7c.3.5.7.9,1.3,1.1.6.3,1.3.4,2.1.4Z"/>
        <path class="cls-8" d="M528.2,273.6v-18.1h2.7v3.2c.7-1.1,1.5-2,2.6-2.6,1.1-.6,2.3-1,3.7-1s2.6.3,3.7.8c1,.6,1.8,1.4,2.4,2.6s.9,2.6.9,4.3v10.8h-3v-10.5c0-1.8-.4-3.2-1.2-4.1-.8-.9-1.9-1.4-3.4-1.4s-1.9.2-2.7.7c-.8.5-1.4,1.2-1.9,2.1s-.7,2.1-.7,3.4v9.7h-3Z"/>
        <path class="cls-8" d="M555.7,274c-1.5,0-2.8-.3-3.9-.8s-2-1.2-2.7-2.1c-.7-.9-1.1-2-1.2-3.2h3.1c.1.6.4,1.2.8,1.7s.9,1,1.6,1.3c.7.3,1.5.5,2.4.5s1.5-.1,2.1-.4,1-.6,1.2-1c.3-.4.4-.9.4-1.4,0-.7-.2-1.3-.5-1.7-.3-.4-.9-.7-1.5-.9-.7-.2-1.5-.4-2.4-.6-.8-.1-1.6-.3-2.3-.6-.8-.2-1.5-.6-2.1-1-.6-.4-1.1-.9-1.4-1.5-.3-.6-.5-1.3-.5-2.1s.3-1.9.8-2.8c.5-.8,1.3-1.4,2.3-1.9,1-.5,2.2-.7,3.5-.7,1.9,0,3.5.5,4.7,1.4,1.2.9,1.9,2.3,2.1,4.1h-3c-.1-.9-.5-1.6-1.2-2.1-.7-.5-1.6-.8-2.7-.8s-2,.2-2.6.7c-.6.5-.9,1.1-.9,1.8s.2.9.5,1.3.8.7,1.4,1c.6.3,1.4.5,2.4.6,1.2.2,2.3.5,3.3.9,1,.4,1.8.9,2.4,1.6.6.7.9,1.7.9,3s-.3,2.1-.8,3c-.6.8-1.4,1.5-2.4,2-1,.5-2.2.7-3.6.7Z"/>
      </g>
    </g>
    <g class="cls-6">
      <g class="cls-6">
        <path class="cls-8" d="M429.2,351.6v-22.7h-7.5v-2.5h18.1v2.5h-7.5v22.7h-3Z"/>
        <path class="cls-8" d="M443.3,351.6v-25.9h3v10.8c.6-1.1,1.4-1.9,2.5-2.6,1.1-.6,2.3-.9,3.6-.9s2.6.3,3.6.8c1,.6,1.8,1.4,2.4,2.6.6,1.2.8,2.6.8,4.4v10.8h-3v-10.5c0-1.8-.4-3.2-1.2-4.1-.8-.9-1.9-1.4-3.3-1.4s-2,.3-2.8.8c-.8.5-1.5,1.2-2,2.2-.5.9-.7,2.1-.7,3.5v9.6h-3Z"/>
        <path class="cls-8" d="M472,352c-1.7,0-3.2-.4-4.5-1.2-1.3-.8-2.3-1.9-3.1-3.3s-1.1-3.1-1.1-5,.4-3.6,1.1-5c.7-1.4,1.8-2.5,3.1-3.3s2.9-1.2,4.6-1.2,3.3.4,4.5,1.2c1.2.8,2.2,1.8,2.8,3.1.7,1.3,1,2.7,1,4.2v.8c0,.3,0,.6,0,.9h-14.8v-2.3h11.9c0-1.7-.6-3-1.6-3.9-1-.9-2.3-1.4-3.8-1.4s-2,.2-2.9.7c-.9.5-1.6,1.2-2.1,2.1-.5.9-.8,2-.8,3.4v1c0,1.5.3,2.7.8,3.7.5,1,1.2,1.8,2.1,2.3.9.5,1.8.8,2.8.8s2.3-.3,3.1-.8,1.4-1.3,1.8-2.3h3c-.3,1.1-.8,2.1-1.5,2.9-.7.9-1.6,1.5-2.7,2-1.1.5-2.3.7-3.7.7Z"/>
        <path class="cls-8" d="M508.5,359.5v-10.9c-.6.9-1.4,1.7-2.5,2.4-1.1.7-2.4,1-4,1s-3.3-.4-4.6-1.2c-1.3-.8-2.3-2-3.1-3.4-.7-1.4-1.1-3.1-1.1-4.9s.4-3.4,1.1-4.9c.7-1.4,1.7-2.6,3.1-3.4s2.9-1.2,4.6-1.2,2,.1,2.8.4c.8.3,1.6.7,2.2,1.2.6.5,1.1,1.1,1.5,1.8l.3-3h2.7v26.1h-3ZM502.4,349.4c1.2,0,2.3-.3,3.2-.9.9-.6,1.6-1.4,2.1-2.4.5-1,.8-2.2.8-3.6s-.3-2.6-.8-3.6-1.2-1.8-2.1-2.4-2-.9-3.2-.9-2.2.3-3.1.9-1.6,1.4-2.1,2.4-.8,2.2-.8,3.6.3,2.6.8,3.6c.5,1,1.2,1.8,2.1,2.4.9.6,2,.9,3.1.9Z"/>
        <path class="cls-8" d="M523.2,352c-1.4,0-2.6-.3-3.7-.8-1-.6-1.8-1.4-2.4-2.6-.6-1.2-.8-2.6-.8-4.3v-10.9h3v10.5c0,1.8.4,3.2,1.2,4.1.8.9,1.9,1.3,3.4,1.3s1.9-.2,2.7-.7c.8-.5,1.4-1.2,1.9-2.1.5-.9.7-2.1.7-3.4v-9.7h3v18.1h-2.7l-.2-3.2c-.6,1.1-1.4,2-2.4,2.6-1.1.6-2.3,1-3.7,1Z"/>
        <path class="cls-8" d="M539,329.6c-.6,0-1.1-.2-1.5-.6s-.6-.9-.6-1.5.2-1.1.6-1.5c.4-.4.9-.6,1.5-.6s1.1.2,1.5.6c.4.4.6.9.6,1.5s-.2,1.1-.6,1.5c-.4.4-.9.6-1.5.6ZM537.5,351.6v-18.1h3v18.1h-3Z"/>
        <path class="cls-8" d="M554,352c-1.7,0-3.2-.4-4.6-1.2-1.4-.8-2.4-1.9-3.2-3.3-.8-1.4-1.2-3.1-1.2-5s.4-3.6,1.2-5c.8-1.4,1.8-2.5,3.2-3.3,1.4-.8,2.9-1.2,4.6-1.2s4,.6,5.4,1.7c1.4,1.1,2.4,2.6,2.7,4.5h-3.1c-.2-1.1-.8-2-1.8-2.6s-2-.9-3.3-.9-2,.3-2.9.8c-.9.5-1.6,1.3-2.1,2.3-.5,1-.8,2.3-.8,3.8s.2,2.1.5,3c.3.9.7,1.6,1.3,2.2.5.6,1.1,1,1.9,1.3.7.3,1.4.5,2.2.5s1.6-.1,2.3-.4,1.3-.7,1.8-1.2c.5-.5.8-1.2,1-1.9h3.1c-.4,1.8-1.3,3.3-2.8,4.4-1.5,1.1-3.2,1.7-5.4,1.7Z"/>
        <path class="cls-8" d="M566.5,351.6v-25.9h3v25.9h-3ZM577.6,351.6l-8.6-9.9,7.9-8.2h3.7l-9,9.3v-2.2s9.9,11,9.9,11h-3.9Z"/>
        <path class="cls-8" d="M603.7,352c-1,0-2-.1-2.8-.4s-1.6-.7-2.2-1.2-1.1-1.1-1.5-1.8l-.3,3h-2.7v-25.9h3v10.8c.6-.9,1.4-1.7,2.5-2.4,1.1-.7,2.4-1,4-1s3.3.4,4.6,1.2c1.3.8,2.3,2,3.1,3.4.7,1.4,1.1,3.1,1.1,4.9s-.4,3.5-1.1,4.9c-.7,1.4-1.8,2.6-3.1,3.4-1.3.8-2.9,1.2-4.6,1.2ZM603.3,349.4c1.2,0,2.2-.3,3.1-.9.9-.6,1.6-1.4,2.1-2.4.5-1,.8-2.2.8-3.6s-.3-2.6-.8-3.6c-.5-1-1.2-1.8-2.1-2.4s-2-.9-3.1-.9-2.3.3-3.2.9c-.9.6-1.6,1.4-2.1,2.4s-.8,2.2-.8,3.6.3,2.6.8,3.6c.5,1,1.2,1.8,2.1,2.4.9.6,2,.9,3.2.9Z"/>
      </g>
      <g class="cls-6">
        <path class="cls-8" d="M616.7,351.6v-18.1h2.7l.2,3.5c.4-.8.9-1.5,1.6-2.1.6-.6,1.4-1,2.3-1.3.9-.3,1.9-.5,3.1-.5v3.2h-1.1c-.8,0-1.5.1-2.2.3s-1.3.5-1.9,1c-.5.5-1,1.1-1.3,1.9-.3.8-.5,1.7-.5,2.9v9.4h-3Z"/>
        <path class="cls-8" d="M636.8,352c-1.7,0-3.2-.4-4.6-1.2-1.3-.8-2.4-1.9-3.2-3.3-.8-1.4-1.2-3.1-1.2-5s.4-3.6,1.2-5.1,1.8-2.5,3.2-3.3c1.4-.8,2.9-1.2,4.6-1.2s3.2.4,4.6,1.2c1.3.8,2.4,1.9,3.2,3.3.8,1.4,1.2,3.1,1.2,5s-.4,3.6-1.2,5-1.9,2.5-3.2,3.3c-1.3.8-2.9,1.2-4.6,1.2ZM636.8,349.4c1,0,2-.3,2.9-.8.9-.5,1.6-1.3,2.2-2.3.6-1,.8-2.3.8-3.8s-.3-2.8-.8-3.8c-.5-1-1.2-1.8-2.1-2.3-.9-.5-1.8-.8-2.9-.8s-2,.3-2.9.8c-.9.5-1.6,1.3-2.2,2.3-.5,1-.8,2.3-.8,3.8s.3,2.8.8,3.8,1.2,1.8,2.1,2.3c.9.5,1.8.8,2.9.8Z"/>
      </g>
      <g class="cls-6">
        <path class="cls-8" d="M653.7,351.6l-5.3-18.1h3l4.1,15.3h-.5l4.5-15.3h3.4l4.6,15.3h-.6s4.1-15.3,4.1-15.3h3.1l-5.3,18.1h-3.1l-4.8-16h.6l-4.8,16h-3.1Z"/>
        <path class="cls-8" d="M677.5,351.6v-18.1h2.7v3.2c.7-1.1,1.5-2,2.6-2.6,1.1-.6,2.3-1,3.7-1s2.6.3,3.7.8c1,.6,1.8,1.4,2.4,2.6s.9,2.6.9,4.3v10.8h-3v-10.5c0-1.8-.4-3.2-1.2-4.1-.8-.9-1.9-1.4-3.4-1.4s-1.9.2-2.7.7c-.8.5-1.4,1.2-1.9,2.1-.5.9-.7,2.1-.7,3.4v9.7h-3Z"/>
      </g>
      <g class="cls-6">
        <path class="cls-8" d="M706,336v-2.6h10.4v2.6h-10.4ZM708.7,351.6v-21c0-1.2.2-2.1.6-2.8.4-.7,1-1.3,1.7-1.6.8-.3,1.7-.5,2.8-.5h2.1v2.6h-1.6c-.9,0-1.5.2-1.9.5-.4.4-.6,1-.6,1.9v20.9h-3Z"/>
      </g>
      <g class="cls-6">
        <path class="cls-8" d="M727.4,352c-1.7,0-3.2-.4-4.6-1.2-1.3-.8-2.4-1.9-3.2-3.3-.8-1.4-1.2-3.1-1.2-5s.4-3.6,1.2-5.1c.8-1.4,1.8-2.5,3.2-3.3,1.4-.8,2.9-1.2,4.6-1.2s3.2.4,4.6,1.2c1.3.8,2.4,1.9,3.2,3.3.8,1.4,1.2,3.1,1.2,5s-.4,3.6-1.2,5-1.9,2.5-3.2,3.3c-1.3.8-2.9,1.2-4.6,1.2ZM727.4,349.4c1,0,2-.3,2.9-.8.9-.5,1.6-1.3,2.2-2.3.6-1,.8-2.3.8-3.8s-.3-2.8-.8-3.8c-.5-1-1.2-1.8-2.1-2.3-.9-.5-1.8-.8-2.9-.8s-2,.3-2.9.8c-.9.5-1.6,1.3-2.2,2.3-.5,1-.8,2.3-.8,3.8s.3,2.8.8,3.8,1.2,1.8,2.1,2.3c.9.5,1.8.8,2.9.8Z"/>
      </g>
      <g class="cls-6">
        <path class="cls-8" d="M738,351.6l6.2-9.1-6.2-9.1h3.3l4.9,7.4,5-7.4h3.2l-6.2,9.1,6.2,9.1h-3.2l-5-7.5-4.9,7.5h-3.3Z"/>
      </g>
    </g>
    <g class="cls-6">
      <g class="cls-6">
        <path class="cls-8" d="M419.6,398.5v-2.6h1.4c.9,0,1.6-.2,1.9-.6s.6-1,.6-1.9v-21h3v21.1c0,1.2-.2,2.1-.6,2.8-.4.7-1,1.3-1.7,1.6-.8.3-1.7.5-2.8.5h-1.9ZM425.1,368.6c-.6,0-1.1-.2-1.5-.6-.4-.4-.6-.9-.6-1.5s.2-1.1.6-1.5c.4-.4.9-.6,1.5-.6s1.1.2,1.5.6c.4.4.6.9.6,1.5s-.2,1.1-.6,1.5-.9.6-1.5.6Z"/>
        <path class="cls-8" d="M438.4,391c-1.4,0-2.6-.3-3.7-.8-1-.6-1.8-1.4-2.4-2.6-.6-1.2-.8-2.6-.8-4.3v-10.9h3v10.5c0,1.8.4,3.2,1.2,4.1.8.9,1.9,1.3,3.4,1.3s1.9-.2,2.7-.7c.8-.5,1.4-1.2,1.9-2.1.5-.9.7-2.1.7-3.4v-9.7h3v18.1h-2.7l-.2-3.2c-.6,1.1-1.4,2-2.4,2.6-1.1.6-2.3,1-3.7,1Z"/>
        <path class="cls-8" d="M452.5,390.6v-18.1h2.7l.2,2.6c.6-.9,1.3-1.7,2.3-2.2,1-.5,2-.8,3.2-.8s1.8.1,2.5.4,1.4.6,2,1.2c.6.5,1,1.2,1.4,2,.6-1.1,1.5-2,2.6-2.6,1.1-.6,2.3-.9,3.5-.9s2.6.3,3.7.8c1,.6,1.8,1.4,2.4,2.6.6,1.1.8,2.6.8,4.3v10.8h-3v-10.5c0-1.8-.4-3.2-1.1-4.1-.7-.9-1.8-1.4-3.1-1.4s-1.8.2-2.5.7c-.7.5-1.3,1.2-1.8,2.1-.4.9-.6,2.1-.6,3.5v9.6h-3v-10.5c0-1.8-.4-3.2-1.1-4.1-.7-.9-1.8-1.4-3.2-1.4s-1.7.2-2.5.7c-.7.5-1.3,1.2-1.7,2.1-.4.9-.6,2.1-.6,3.5v9.6h-3Z"/>
        <path class="cls-8" d="M484.6,398.5v-26.1h2.7l.3,3c.4-.6.9-1.1,1.5-1.6.6-.5,1.3-.9,2.1-1.3s1.8-.5,2.9-.5c1.8,0,3.3.4,4.6,1.2,1.3.8,2.3,2,3.1,3.4.7,1.4,1.1,3.1,1.1,4.9s-.4,3.5-1.1,4.9c-.7,1.4-1.8,2.6-3.1,3.4-1.3.8-2.9,1.2-4.6,1.2s-2.8-.3-3.9-.9c-1.1-.6-2-1.4-2.6-2.5v10.9h-3ZM493.7,388.4c1.2,0,2.2-.3,3.1-.9.9-.6,1.6-1.4,2.1-2.4.5-1,.8-2.2.8-3.6s-.3-2.6-.8-3.6c-.5-1-1.2-1.8-2.1-2.4s-2-.9-3.1-.9-2.3.3-3.2.9c-.9.6-1.6,1.4-2.1,2.4s-.8,2.2-.8,3.6.3,2.6.8,3.6c.5,1,1.2,1.8,2.1,2.4.9.6,2,.9,3.2.9Z"/>
        <path class="cls-8" d="M513.9,391c-1.5,0-2.8-.3-3.9-.8s-2-1.2-2.7-2.1c-.7-.9-1.1-2-1.2-3.2h3.1c.1.6.4,1.2.8,1.7.4.5.9,1,1.6,1.3.7.3,1.5.5,2.4.5s1.5-.1,2.1-.4c.6-.3,1-.6,1.2-1,.3-.4.4-.9.4-1.4,0-.7-.2-1.3-.5-1.7s-.9-.7-1.5-.9c-.7-.2-1.5-.4-2.4-.6-.8-.1-1.6-.3-2.3-.6-.8-.2-1.5-.6-2.1-1-.6-.4-1.1-.9-1.4-1.5s-.5-1.3-.5-2.1.3-1.9.8-2.8c.5-.8,1.3-1.4,2.3-1.9s2.2-.7,3.5-.7c1.9,0,3.5.5,4.7,1.4,1.2.9,1.9,2.3,2.1,4.1h-3c-.1-.9-.5-1.6-1.2-2.1-.7-.5-1.6-.8-2.7-.8s-2,.2-2.6.7-.9,1.1-.9,1.8.2.9.5,1.3c.3.4.8.7,1.4,1s1.4.5,2.4.6c1.2.2,2.3.5,3.3.9s1.8.9,2.4,1.6c.6.7.9,1.7.9,3s-.3,2.1-.8,3c-.6.8-1.4,1.5-2.4,2-1,.5-2.2.7-3.6.7Z"/>
      </g>
      <g class="cls-6">
        <path class="cls-8" d="M542.9,391c-1.7,0-3.2-.4-4.6-1.2-1.3-.8-2.4-1.9-3.2-3.3-.8-1.4-1.2-3.1-1.2-5s.4-3.6,1.2-5.1c.8-1.4,1.8-2.5,3.2-3.3,1.4-.8,2.9-1.2,4.6-1.2s3.2.4,4.6,1.2c1.3.8,2.4,1.9,3.2,3.3.8,1.4,1.2,3.1,1.2,5s-.4,3.6-1.2,5-1.9,2.5-3.2,3.3c-1.3.8-2.9,1.2-4.6,1.2ZM542.9,388.4c1,0,2-.3,2.9-.8.9-.5,1.6-1.3,2.2-2.3.6-1,.8-2.3.8-3.8s-.3-2.8-.8-3.8c-.5-1-1.2-1.8-2.1-2.3-.9-.5-1.8-.8-2.9-.8s-2,.3-2.9.8c-.9.5-1.6,1.3-2.2,2.3-.5,1-.8,2.3-.8,3.8s.3,2.8.8,3.8,1.2,1.8,2.1,2.3c.9.5,1.8.8,2.9.8Z"/>
        <path class="cls-8" d="M559.7,390.6l-6.9-18.1h3.2l5.5,15.2,5.5-15.2h3.1l-6.9,18.1h-3.5Z"/>
      </g>
      <g class="cls-6">
        <path class="cls-8" d="M581.2,391c-1.7,0-3.2-.4-4.5-1.2-1.3-.8-2.3-1.9-3.1-3.3-.7-1.4-1.1-3.1-1.1-5s.4-3.6,1.1-5c.7-1.4,1.8-2.5,3.1-3.3s2.9-1.2,4.6-1.2,3.3.4,4.5,1.2,2.2,1.8,2.8,3.1c.7,1.3,1,2.7,1,4.2v.8c0,.3,0,.6,0,.9h-14.8v-2.3h11.9c0-1.7-.6-3-1.6-3.9-1-.9-2.3-1.4-3.8-1.4s-2,.2-2.9.7c-.9.5-1.6,1.2-2.1,2.1-.5.9-.8,2-.8,3.4v1c0,1.5.3,2.7.8,3.7.5,1,1.2,1.8,2.1,2.3s1.8.8,2.8.8,2.3-.3,3.2-.8,1.4-1.3,1.8-2.3h3c-.3,1.1-.8,2.1-1.5,2.9s-1.6,1.5-2.7,2c-1.1.5-2.3.7-3.7.7Z"/>
        <path class="cls-8" d="M593.7,390.6v-18.1h2.7l.2,3.5c.4-.8.9-1.5,1.6-2.1.6-.6,1.4-1,2.3-1.3.9-.3,1.9-.5,3.1-.5v3.2h-1.1c-.8,0-1.5.1-2.2.3-.7.2-1.3.5-1.9,1-.5.5-1,1.1-1.3,1.9s-.5,1.7-.5,2.9v9.4h-3Z"/>
        <path class="cls-8" d="M623.7,390.6c-1.1,0-2-.2-2.8-.5s-1.4-.9-1.8-1.7c-.4-.8-.6-1.9-.6-3.3v-10.1h-3.2v-2.6h3.2l.4-4.4h2.6v4.4h5.3v2.6h-5.3v10.1c0,1.1.2,1.9.7,2.3.5.4,1.3.6,2.4.6h1.9v2.6h-2.8Z"/>
        <path class="cls-8" d="M630.7,390.6v-25.9h3v10.8c.6-1.1,1.4-1.9,2.5-2.6,1.1-.6,2.3-.9,3.6-.9s2.6.3,3.6.8c1,.6,1.8,1.4,2.4,2.6.6,1.2.8,2.6.8,4.4v10.8h-3v-10.5c0-1.8-.4-3.2-1.2-4.1-.8-.9-1.9-1.4-3.3-1.4s-2,.3-2.8.8c-.8.5-1.5,1.2-2,2.2-.5.9-.7,2.1-.7,3.5v9.6h-3Z"/>
        <path class="cls-8" d="M659.4,391c-1.7,0-3.2-.4-4.5-1.2-1.3-.8-2.3-1.9-3.1-3.3-.7-1.4-1.1-3.1-1.1-5s.4-3.6,1.1-5c.7-1.4,1.8-2.5,3.1-3.3s2.9-1.2,4.6-1.2,3.3.4,4.5,1.2,2.2,1.8,2.8,3.1c.7,1.3,1,2.7,1,4.2v.8c0,.3,0,.6,0,.9h-14.8v-2.3h11.9c0-1.7-.6-3-1.6-3.9-1-.9-2.3-1.4-3.8-1.4s-2,.2-2.9.7c-.9.5-1.6,1.2-2.1,2.1-.5.9-.8,2-.8,3.4v1c0,1.5.3,2.7.8,3.7.5,1,1.2,1.8,2.1,2.3s1.8.8,2.8.8,2.3-.3,3.2-.8,1.4-1.3,1.8-2.3h3c-.3,1.1-.8,2.1-1.5,2.9s-1.6,1.5-2.7,2c-1.1.5-2.3.7-3.7.7Z"/>
        <path class="cls-8" d="M681.4,390.6v-25.9h3v25.9h-3Z"/>
        <path class="cls-8" d="M695.4,391c-1.5,0-2.7-.3-3.7-.8-1-.5-1.7-1.2-2.2-2.1-.5-.9-.7-1.8-.7-2.8s.3-2.3,1-3.1c.6-.9,1.5-1.5,2.7-1.9,1.2-.4,2.5-.7,4.1-.7h4.8c0-1.1-.2-2.1-.5-2.8-.3-.8-.9-1.3-1.5-1.7-.7-.4-1.5-.6-2.5-.6s-2.1.3-3,.9c-.8.6-1.4,1.4-1.5,2.6h-3.1c.1-1.3.6-2.4,1.3-3.3.7-.9,1.7-1.5,2.8-2,1.1-.5,2.3-.7,3.5-.7s3.1.3,4.2.9c1.1.6,1.9,1.5,2.5,2.6.6,1.1.8,2.4.8,3.9v11.2h-2.7l-.2-3.2c-.2.5-.5,1-.9,1.4-.4.4-.8.8-1.3,1.2s-1.1.6-1.7.8c-.6.2-1.4.3-2.2.3ZM695.8,388.5c.8,0,1.6-.2,2.3-.5.7-.3,1.3-.8,1.7-1.4.5-.6.8-1.3,1.1-2,.3-.7.4-1.5.4-2.3h0c0-.1-4.5-.1-4.5-.1-1.2,0-2.1.1-2.8.4-.7.3-1.2.7-1.5,1.2-.3.5-.5,1-.5,1.7s.1,1.2.5,1.7c.3.5.7.9,1.3,1.1.6.3,1.3.4,2.1.4Z"/>
        <path class="cls-8" d="M707.8,390.6v-2.5l10-13.1h-9.9v-2.5h13.3v2.5l-10.1,13.1h10.3v2.5h-13.7Z"/>
        <path class="cls-8" d="M727.5,398.5l4.4-9.9h-1l-7.1-16.1h3.3l5.9,13.9,6.2-13.9h3.1l-11.6,26.1h-3.2Z"/>
        <path class="cls-8" d="M763.1,391c-1.8,0-3.3-.4-4.6-1.2-1.3-.8-2.3-2-3.1-3.4-.7-1.4-1.1-3.1-1.1-4.9s.4-3.4,1.1-4.9c.7-1.4,1.7-2.5,3.1-3.4,1.3-.8,2.9-1.2,4.6-1.2s2.8.3,3.9.9c1.1.6,2,1.4,2.6,2.5v-10.8h3v25.9h-2.7l-.3-3c-.4.6-.9,1.2-1.5,1.7-.6.5-1.3.9-2.2,1.3-.8.3-1.8.5-2.9.5ZM763.5,388.4c1.2,0,2.3-.3,3.2-.9.9-.6,1.6-1.4,2.1-2.4.5-1,.8-2.2.8-3.6s-.3-2.6-.8-3.6-1.2-1.8-2.1-2.4c-.9-.6-2-.9-3.2-.9s-2.2.3-3.1.9c-.9.6-1.6,1.4-2.1,2.4-.5,1-.8,2.2-.8,3.6s.3,2.6.8,3.6c.5,1,1.2,1.8,2.1,2.4.9.6,2,.9,3.1.9Z"/>
      </g>
      <g class="cls-6">
        <path class="cls-8" d="M785.8,391c-1.7,0-3.2-.4-4.6-1.2-1.3-.8-2.4-1.9-3.2-3.3-.8-1.4-1.2-3.1-1.2-5s.4-3.6,1.2-5.1,1.8-2.5,3.2-3.3c1.4-.8,2.9-1.2,4.6-1.2s3.2.4,4.6,1.2c1.3.8,2.4,1.9,3.2,3.3.8,1.4,1.2,3.1,1.2,5s-.4,3.6-1.2,5-1.9,2.5-3.2,3.3c-1.3.8-2.9,1.2-4.6,1.2ZM785.8,388.4c1,0,2-.3,2.9-.8.9-.5,1.6-1.3,2.2-2.3.6-1,.8-2.3.8-3.8s-.3-2.8-.8-3.8c-.5-1-1.2-1.8-2.1-2.3-.9-.5-1.8-.8-2.9-.8s-2,.3-2.9.8c-.9.5-1.6,1.3-2.2,2.3-.5,1-.8,2.3-.8,3.8s.3,2.8.8,3.8,1.2,1.8,2.1,2.3c.9.5,1.8.8,2.9.8Z"/>
      </g>
      <g class="cls-6">
        <path class="cls-8" d="M805.5,399c-1.6,0-3.1-.2-4.3-.6s-2.2-1.1-2.9-1.9c-.7-.9-1-1.9-1-3.2s.1-1.1.3-1.8c.2-.6.6-1.2,1.2-1.8s1.4-1.1,2.4-1.6l2.1,1.2c-1.3.5-2.1,1.1-2.5,1.8s-.6,1.3-.6,1.9.2,1.5.7,2c.5.5,1.1.9,1.9,1.2.8.3,1.7.4,2.8.4s1.9-.1,2.7-.4c.7-.3,1.3-.7,1.7-1.2.4-.5.6-1.2.6-1.9s-.3-1.5-.9-2.1c-.6-.6-1.8-.9-3.6-1-1.4,0-2.6-.2-3.6-.4-1-.2-1.8-.4-2.4-.6-.6-.2-1.1-.5-1.6-.8-.4-.3-.8-.6-1.1-.9v-.8l3.5-3.5,2.6.9-3.6,3.2.5-1.3c.3.2.5.4.8.5.2.2.6.3,1,.4.4.1,1,.2,1.7.3.7,0,1.7.2,2.9.3,1.7.1,3,.4,4,.9s1.7,1.1,2.2,1.8c.4.8.7,1.7.7,2.7s-.3,2-.8,2.9c-.6.9-1.4,1.7-2.6,2.3-1.2.6-2.7.9-4.5.9ZM805.4,384.9c-1.5,0-2.8-.3-3.9-.9-1.1-.6-1.9-1.4-2.4-2.3-.6-1-.8-2.1-.8-3.3s.3-2.3.8-3.2c.6-1,1.4-1.7,2.4-2.3,1.1-.6,2.3-.9,3.9-.9s2.8.3,3.9.9c1.1.6,1.9,1.4,2.4,2.3.6,1,.8,2,.8,3.2s-.3,2.3-.8,3.3c-.6,1-1.4,1.7-2.4,2.3-1.1.6-2.3.9-3.9.9ZM805.4,382.4c1.3,0,2.3-.3,3.1-1,.7-.7,1.1-1.7,1.1-3s-.4-2.2-1.1-2.9c-.7-.7-1.8-1-3.1-1s-2.3.3-3.1,1c-.8.7-1.2,1.6-1.2,2.9s.4,2.3,1.2,3c.8.7,1.8,1,3.1,1ZM808.4,375l-.9-2.6h7.4v2.3l-6.5.3Z"/>
      </g>
    </g>
  </g>
</svg>